<svg id="Capa_1" enable-background="new 0 0 512 512" height="512" viewBox="0 0 512 512" width="512" xmlns="http://www.w3.org/2000/svg"><g><path d="m256 16c-74.443 0-135 60.557-135 135v128.027h135 135v-128.027c0-74.443-60.557-135-135-135z" fill="#4b2746"/><path d="m391 151c0-74.443-60.557-135-135-135v263.027h135z" fill="#351b33"/><path d="m346 256h-15l-30 15h-45-45l-30-15h-15c-41.353 0-75 33.647-75 75v60h165 165v-60c0-41.353-33.647-75-75-75z" fill="#ff641a"/><path d="m421 331c0-41.353-33.647-75-75-75h-15l-30 15h-45v120h165z" fill="#f03800"/><path d="m301 256-30 15h-15-15l-30-15h-30v15c0 41.353 33.647 75 75 75s75-33.647 75-75v-15z" fill="#dfe7f4"/><path d="m331 271v-15h-30l-30 15h-15v75c41.353 0 75-33.647 75-75z" fill="#c7cfe1"/><path d="m286 241v-15h-30-30v15c0 8.276-6.724 15-15 15v15c0 24.814 20.186 45 45 45s45-20.186 45-45v-15c-8.276 0-15-6.724-15-15z" fill="#ffbfab"/><path d="m301 271v-15c-8.276 0-15-6.724-15-15v-15h-30v90c24.814 0 45-20.186 45-45z" fill="#f89580"/><path d="m316 106h-60c-11.4 0-21.899-4.501-30-11.4-8.101 6.899-18.6 11.4-30 11.4-8.401 0-15 6.599-15 15v60c0 41.4 33.6 75 75 75s75-33.6 75-75v-60c0-8.401-6.599-15-15-15z" fill="#ffe1ba"/><path d="m331 181v-60c0-8.401-6.599-15-15-15h-60v150c41.4 0 75-33.6 75-75z" fill="#ffbfab"/><path d="m61 406c-33.091 0-61 26.909-61 60v15c0 8.291 6.709 15 15 15h78.704l22.378-38.11-39.945-49.727c-4.916-1.29-9.955-2.163-15.137-2.163z" fill="#ffbfab"/><path d="m451 406c-5.182 0-10.221.873-15.137 2.162l-39.567 47.834 22 40.004h78.704c8.291 0 15-6.709 15-15v-15c0-33.091-27.909-60-61-60z" fill="#f89580"/><path d="m447.602 321.493c-2.857-3.472-7.105-5.493-11.602-5.493h-180-180c-4.497 0-8.745 2.021-11.602 5.493-2.842 3.472-3.984 8.042-3.105 12.451l14.844 74.218 17.567 87.838h162.296 162.296l17.567-87.838 14.844-74.218c.879-4.409-.264-8.979-3.105-12.451z" fill="#f0f7ff"/><path d="m435.863 408.162 14.844-74.218c.879-4.409-.264-8.979-3.105-12.451-2.857-3.472-7.105-5.493-11.602-5.493h-180v180h162.296z" fill="#dfe7f4"/><circle cx="256" cy="420.998" fill="#613d5c" r="15"/><path d="m271 420.998c0-8.284-6.716-15-15-15v30c8.284 0 15-6.716 15-15z" fill="#4b2746"/></g></svg>