<svg height="512" viewBox="0 0 512 512" width="512" xmlns="http://www.w3.org/2000/svg"><g id="Businesswoman"><g id="Flat"><path d="m384 184v207a8 8 0 0 1 -8 8h-352a8 8 0 0 1 -8-8v-207c0-75.92 46.22-141.25 112-169.33q7.815-3.33 16-5.96a183.5 183.5 0 0 1 56-8.71c101.46 0 184 82.54 184 184z" fill="#ffd740"/><path d="m261.337 10.525a188.066 188.066 0 0 1 -177.337 125.475 187.787 187.787 0 0 1 -58.831-9.4 183.313 183.313 0 0 0 -9.169 57.4v207a8 8 0 0 0 8 8h352a8 8 0 0 0 8-8v-207c0-79.961-51.272-148.158-122.663-173.475z" fill="#ffc400"/><rect fill="#f4c2b5" height="48" rx="8" width="72" x="164" y="272"/><path d="m356 144h-103.407a156.125 156.125 0 0 1 -110.878-46.6 8 8 0 0 0 -13.715 5.6 41.047 41.047 0 0 1 -41 41h-43a44 44 0 0 0 0 88h5.082a68.1 68.1 0 0 0 66.918 56h168a68.1 68.1 0 0 0 66.918-56h5.082a44 44 0 0 0 0-88z" fill="#ffe7de"/><path d="m352 368v136a8 8 0 0 1 -8 8h-288a8 8 0 0 1 -8-8v-136a63.978 63.978 0 0 1 64-64h176a63.978 63.978 0 0 1 64 64z" fill="#0469bc"/><path d="m204 256a28.032 28.032 0 0 1 -28-28 8 8 0 0 1 16 0 12 12 0 0 0 24 0 8 8 0 0 1 16 0 28.032 28.032 0 0 1 -28 28z" fill="#f4c2b5"/><circle cx="128" cy="192" fill="#525252" r="24"/><circle cx="280" cy="192" fill="#525252" r="24"/><path d="m143.915 174.057c.051.641.085 1.288.085 1.943a23.983 23.983 0 0 1 -39.915 17.943 24 24 0 1 0 39.83-19.886z" fill="#3f3f3f"/><path d="m295.915 174.057c.051.641.085 1.288.085 1.943a23.983 23.983 0 0 1 -39.915 17.943 24 24 0 1 0 39.83-19.886z" fill="#3f3f3f"/><path d="m200 464a8 8 0 0 1 -7.155-4.422l-72-144a8 8 0 0 1 7.155-11.578h144a8 8 0 0 1 7.155 11.578l-72 144a8 8 0 0 1 -7.155 4.422z" fill="#e2e2e2"/><path d="m278.5 307.342a8 8 0 0 0 -6.5-3.342h-144a8 8 0 0 0 -7.574 10.576l12.62 37.111a8 8 0 0 0 11.814 4.213l55.14-34.466 55.14 34.466a8 8 0 0 0 11.814-4.208l12.62-37.111a8 8 0 0 0 -1.074-7.239z" fill="#f5f5f5"/><path d="m200 398a8 8 0 0 1 -8-8v-1a8 8 0 0 1 16 0v1a8 8 0 0 1 -8 8zm0-37a8 8 0 0 1 -8-8v-1a8 8 0 0 1 16 0v1a8 8 0 0 1 -8 8z" fill="#525252"/><path d="m144 8.71v90.97c-.77-.76-1.53-1.51-2.29-2.28a8 8 0 0 0 -13.71 5.6v-88.33q7.815-3.33 16-5.96z" fill="#f2b200"/><path d="m304 312v96a8 8 0 0 1 -8 8h-24l14.4 19.2a8 8 0 0 1 -.38 10.07l-56 64a8.015 8.015 0 0 1 -6.02 2.73h-48a8.015 8.015 0 0 1 -6.02-2.73l-56-64a8 8 0 0 1 -.38-10.07l14.4-19.2h-24a8 8 0 0 1 -8-8v-96a7.985 7.985 0 0 1 3.85-6.84 64.009 64.009 0 0 1 12.15-1.16h16a8.011 8.011 0 0 1 7.16 4.42l56.84 113.69 8 16 8-16 56.84-113.69a8.011 8.011 0 0 1 7.16-4.42h16a64.009 64.009 0 0 1 12.15 1.16 7.985 7.985 0 0 1 3.85 6.84z" fill="#0277bd"/><path d="m208 422.11v89.89h-16v-89.89l8 16z" fill="#01579b"/><rect fill="#ae583e" height="160" rx="24" width="240" x="272" y="352"/><path d="m432 368a8 8 0 0 1 -8-8v-16a8.009 8.009 0 0 0 -8-8h-48a8.009 8.009 0 0 0 -8 8v16a8 8 0 0 1 -16 0v-16a24.027 24.027 0 0 1 24-24h48a24.027 24.027 0 0 1 24 24v16a8 8 0 0 1 -8 8z" fill="#525252"/><path d="m392 440.7-120-51.425v-13.275a24.027 24.027 0 0 1 24-24h192a24.027 24.027 0 0 1 24 24v13.275z" fill="#c97e67"/><path d="m408 480h-32a8 8 0 0 1 0-16h32a8 8 0 0 1 0 16z" fill="#e8beb3"/><path d="m356 144h-6.961a280.877 280.877 0 0 1 -159.577 144h94.538a68.1 68.1 0 0 0 66.918-56h5.082a44 44 0 0 0 0-88z" fill="#f9d8cd"/><circle cx="120" cy="184" fill="#f5f5f5" r="8"/><circle cx="272" cy="184" fill="#f5f5f5" r="8"/><circle cx="92" cy="220" fill="#fff5f2" r="12"/><circle cx="316" cy="220" fill="#fff5f2" r="12"/><circle cx="308" cy="372" fill="#e8beb3" r="12"/><circle cx="336" cy="392" fill="#e8beb3" r="8"/><g fill="#ffe7a4"><circle cx="100" cy="76" r="12"/><circle cx="176" cy="32" r="16"/><circle cx="200" cy="56" r="8"/></g><path d="m488 352h-40.634a217.145 217.145 0 0 1 -100.7 69.273l45.334 19.427 120-51.429v-13.271a24.027 24.027 0 0 0 -24-24z" fill="#c0694e"/><path d="m104 512a8 8 0 0 1 -8-8v-40a8 8 0 0 1 16 0v40a8 8 0 0 1 -8 8z" fill="#01579b"/></g></g></svg>