<?xml version="1.0"?>
<svg xmlns="http://www.w3.org/2000/svg" viewBox="0 0 512 512" width="512" height="512"><g id="Flat"><path d="M256.00006,24h-.00012A63.99994,63.99994,0,0,0,192,87.99994v32.73343a76.84434,76.84434,0,0,1-12.906,42.62557l0,0A18.4222,18.4222,0,0,0,176,173.57776v0A18.42219,18.42219,0,0,0,194.42219,192H317.57781A18.42219,18.42219,0,0,0,336,173.57778v0a18.4222,18.4222,0,0,0-3.094-10.21879l0,0A76.84434,76.84434,0,0,1,320,120.73337V87.99994A63.99994,63.99994,0,0,0,256.00006,24Z" style="fill:#2f4054"/><path d="M120,360H52a12,12,0,0,0-12,12v0a12,12,0,0,0,12,12h60Z" style="fill:#efae81"/><path d="M161.08008,254.83008,147.21,249.28A111.87787,111.87787,0,0,0,144,275.87988V312a33.92,33.92,0,0,0-46.27-1.58984c-.59.48974-1.16992,1.02978-1.73,1.58984l-8,8c-.56006.56006-1.1,1.14014-1.59009,1.73A33.92031,33.92031,0,0,0,88,368l16,16h26.75a31.99538,31.99538,0,0,0,22.62-9.37012l21.26-21.25976a31.93041,31.93041,0,0,0,9.30994-20.81006c.04-.6001.06006-1.21.06006-1.81006V264ZM120,360a16,16,0,1,1,16-16A15.99564,15.99564,0,0,1,120,360Z" style="fill:#f4ceaf"/><path d="M115.86,328.54A16.023,16.023,0,0,0,104.54,339.85986L86.40991,321.73c.49011-.58984,1.03-1.16992,1.59009-1.73l8-8c.56006-.56006,1.14-1.1001,1.73-1.58984Z" style="fill:#f2c194"/><path d="M120,360H92a12,12,0,0,0-12,12v0a12,12,0,0,0,12,12h36Z" style="fill:#f2c194"/><path d="M140.5,360l-24.84632-.00367A11.6435,11.6435,0,0,0,104,371.63974v.30138A12.0127,12.0127,0,0,0,116,384h14.74518Z" style="fill:#f4ceaf"/><path d="M392,360h68a12,12,0,0,1,12,12v0a12,12,0,0,1-12,12H400Z" style="fill:#efae81"/><path d="M425.59009,321.73c-.49011-.58984-1.03-1.16992-1.59009-1.73l-8-8c-.56006-.56006-1.14-1.1001-1.73-1.58984A33.92,33.92,0,0,0,368,312V275.87988A111.87787,111.87787,0,0,0,364.79,249.28l-13.87012,5.55L328,264v66.75c0,.6001.02,1.21.06006,1.81006A31.93041,31.93041,0,0,0,337.37,353.37012l21.26,21.25976A31.99538,31.99538,0,0,0,381.25,384H408l16-16A33.92031,33.92031,0,0,0,425.59009,321.73Zm-35.67017,38.14014A16.00586,16.00586,0,1,1,407.87,341.91992,16.04173,16.04173,0,0,1,389.91992,359.87012Z" style="fill:#f4ceaf"/><path d="M396.14,328.54a16.023,16.023,0,0,1,11.32,11.31982L425.59009,321.73c-.49011-.58984-1.03-1.16992-1.59009-1.73l-8-8c-.56006-.56006-1.14-1.1001-1.73-1.58984Z" style="fill:#f2c194"/><path d="M392,360h28a12,12,0,0,1,12,12v0a12,12,0,0,1-12,12H384Z" style="fill:#f2c194"/><path d="M371.5,360l24.84632-.00367A11.6435,11.6435,0,0,1,408,371.63974v.30138A12.0127,12.0127,0,0,1,396,384H381.25483Z" style="fill:#f4ceaf"/><path d="M161.08008,254.83008,184,264v66.75c0,.6001-.02,1.21-.06006,1.81006a38.338,38.338,0,0,0-11.25-25.25,50.0433,50.0433,0,0,1-11.60986-52.48Z" style="fill:#f2c194"/><path d="M353.93994,272a49.57355,49.57355,0,0,1-14.62988,35.31006,38.338,38.338,0,0,0-11.25,25.25C328.02,331.96,328,331.3501,328,330.75V264l22.91992-9.16992A49.79908,49.79908,0,0,1,353.93994,272Z" style="fill:#f2c194"/><path d="M312,334.62988V350.2002a54.63981,54.63981,0,0,0,19.91992,42.18994l1.89014,1.5498H178.18994l1.89014-1.5498A54.63981,54.63981,0,0,0,200,350.2002V334.62988A54.64211,54.64211,0,0,0,184,296a33.98389,33.98389,0,0,1-8.04-35.22021L147.21,249.28a111.78783,111.78783,0,0,1,17.65-38.48,63.86755,63.86755,0,0,1,43.27-26.17993A61.39289,61.39289,0,0,1,216.93994,184,23.08015,23.08015,0,0,0,240,160.93994V144h32v16.93994A23.06741,23.06741,0,0,0,295.06006,184a61.39289,61.39289,0,0,1,8.80994.62012,63.86755,63.86755,0,0,1,43.27,26.17993A112.13466,112.13466,0,0,1,362.65991,241.71Q363.86,245.46,364.79,249.28l-28.75,11.49976A33.98389,33.98389,0,0,1,328,296a54.63342,54.63342,0,0,0-16,38.62988Z" style="fill:#8acce7"/><path d="M350.89,254.83984,336.03,260.79A33.70879,33.70879,0,0,0,328,248l11.32007-11.32007A49.43788,49.43788,0,0,1,350.89,254.83984Z" style="fill:#379ec3"/><path d="M161.11727,254.83984l14.86,5.9502a33.70879,33.70879,0,0,1,8.03-12.79l-11.32007-11.32007A49.43788,49.43788,0,0,0,161.11727,254.83984Z" style="fill:#379ec3"/><path d="M356.25,412.41016,271.5,444.18994,240,456l-7.54-3.77L154.64,413.31982l25.44007-20.92968A53.77225,53.77225,0,0,0,185.01,387.79c1.1499-1.21,2.25-2.48,3.28-3.79H323.71q1.545,1.96509,3.28,3.77979a52.54136,52.54136,0,0,0,4.92993,4.61035Z" style="fill:#396795"/><path d="M303.87,184.62012l-.02991.15991a48.78739,48.78739,0,0,1-95.68018,0l-.02991-.15991A61.39289,61.39289,0,0,1,216.93994,184,23.05194,23.05194,0,0,0,240,160.93994V144h32v16.93994A23.05194,23.05194,0,0,0,295.06006,184,61.39289,61.39289,0,0,1,303.87,184.62012Z" style="fill:#f4ceaf"/><path d="M224,128H196a12,12,0,0,1-12-12V92a12,12,0,0,1,12-12h0a12,12,0,0,1,12,12Z" style="fill:#f2c194"/><path d="M288,128h28a12,12,0,0,0,12-12V92a12,12,0,0,0-12-12h0a12,12,0,0,0-12,12Z" style="fill:#f2c194"/><path d="M272.46,165.53a56.07984,56.07984,0,0,1-32.91992,0,23.121,23.121,0,0,0,.46-4.59009V144h32v16.93994A23.121,23.121,0,0,0,272.46,165.53Z" style="fill:#f2c194"/><path d="M304,88v24a48,48,0,0,1-48,47.99995H256A48,48,0,0,1,208,112V88a8,8,0,0,1,8-8h13.91057a10.89533,10.89533,0,0,0,10.86325-10.05971l0-.0002c1.44614-18.79987,29.00618-18.79987,30.45232,0l0,.0002A10.89533,10.89533,0,0,0,282.08943,80H296A8,8,0,0,1,304,88Z" style="fill:#f4ceaf"/><path d="M248,104a7.97744,7.97744,0,0,1-5.65674-2.34277,3.316,3.316,0,0,0-4.68652,0,8.00018,8.00018,0,0,1-11.31348-11.31446,19.33735,19.33735,0,0,1,27.31348,0A8.00024,8.00024,0,0,1,248,104Z" style="fill:#2f4054"/><path d="M280,104a7.97744,7.97744,0,0,1-5.65674-2.34277,3.316,3.316,0,0,0-4.68652,0,8.00018,8.00018,0,0,1-11.31348-11.31446,19.33735,19.33735,0,0,1,27.31348,0A8.00024,8.00024,0,0,1,280,104Z" style="fill:#2f4054"/><path d="M256,139.75293a43.80171,43.80171,0,0,1-19.57764-4.59766,7.99984,7.99984,0,1,1,7.15528-14.31054,27.91375,27.91375,0,0,0,24.84472,0,7.99984,7.99984,0,1,1,7.15528,14.31054A43.80171,43.80171,0,0,1,256,139.75293Z" style="fill:#dd6080"/><path d="M356.25,412.41016,271.5,444.18994,240,456l-7.54-3.77,13.9-13.91016c3.34-3.33984,6.80993-6.57959,10.30993-9.62988A212.57383,212.57383,0,0,1,326.99,387.77979a52.54136,52.54136,0,0,0,4.92993,4.61035Z" style="fill:#26507a"/><path d="M448,435.18018V436a51.99866,51.99866,0,0,1-52,52H240V456l12.02-12.02q4.81494-4.81494,9.90991-9.27A204.77077,204.77077,0,0,1,396.82007,384,51.17944,51.17944,0,0,1,448,435.18018Z" style="fill:#396795"/><path d="M271.5,444.18994,240,456l-85.36-42.68018,25.44007-20.92968A53.77225,53.77225,0,0,0,185.01,387.79q5.835,2.02515,11.59,4.41016a211.54621,211.54621,0,0,1,69.03,46.11962Z" style="fill:#26507a"/><path d="M280,452.68994V488H240V456l12.02-12.02q4.81494-4.81494,9.90991-9.27c1.24,1.18018,2.48,2.39014,3.70007,3.60986Z" style="fill:#26507a"/><path d="M384,478.2998A17.62656,17.62656,0,0,1,381.1,488H264V451.06006l22.91992-11.46a40.04138,40.04138,0,0,1,34.13013-.78028L373.49,462.12988A17.72661,17.72661,0,0,1,384,478.2998Z" style="fill:#26507a"/><path d="M271.99994,455.99993l18.49281-9.24637A32,32,0,0,1,317.8,446.13329l52.44093,23.30708A9.69771,9.69771,0,0,1,376,478.30225h0A9.6977,9.6977,0,0,1,366.3023,488L272,488Z" style="fill:#f4ceaf"/><path d="M272,456l-12.02425-12.02425A204.77,204.77,0,0,0,115.18148,384h-.00014A51.18134,51.18134,0,0,0,64,435.18131V436a52,52,0,0,0,52,52H272Z" style="fill:#396795"/></g></svg>
